<svg xmlns="http://www.w3.org/2000/svg" xmlns:xlink="http://www.w3.org/1999/xlink" width="0" height="0" style="display:none;"><symbol viewBox="0 0 640 512" id="fnt-dao"><path fill="currentColor" d="M96 224c35.3 0 64-28.7 64-64s-28.7-64-64-64-64 28.7-64 64 28.7 64 64 64zm448 0c35.3 0 64-28.7 64-64s-28.7-64-64-64-64 28.7-64 64 28.7 64 64 64zm32 32h-64c-17.6 0-33.5 7.1-45.1 18.6 40.3 22.1 68.9 62 75.1 109.4h66c17.7 0 32-14.3 32-32v-32c0-35.3-28.7-64-64-64zm-256 0c61.9 0 112-50.1 112-112S381.9 32 320 32 208 82.1 208 144s50.1 112 112 112zm76.8 32h-8.3c-20.8 10-43.9 16-68.5 16s-47.6-6-68.5-16h-8.3C179.6 288 128 339.6 128 403.2V432c0 26.5 21.5 48 48 48h288c26.5 0 48-21.5 48-48v-28.8c0-63.6-51.6-115.2-115.2-115.2zm-223.7-13.4C161.5 263.1 145.6 256 128 256H64c-35.3 0-64 28.7-64 64v32c0 17.7 14.3 32 32 32h65.9c6.3-47.4 34.9-87.3 75.2-109.4z"></path></symbol><symbol viewBox="0 0 512 512" id="fnt-info-circle"><path fill="currentColor" d="M256 0C114.6 0 0 114.6 0 256s114.6 256 256 256 256-114.6 256-256S397.4 0 256 0zm0 128c17.67 0 32 14.33 32 32s-14.33 32-32 32-32-14.3-32-32 14.3-32 32-32zm40 256h-80c-13.2 0-24-10.7-24-24s10.75-24 24-24h16v-64h-8c-13.25 0-24-10.75-24-24s10.8-24 24-24h32c13.25 0 24 10.75 24 24v88h16c13.25 0 24 10.75 24 24s-10.7 24-24 24z"></path></symbol><symbol viewBox="0 0 448 512" id="fnt-play"><path fill="currentColor" d="M424.4 214.7 72.4 6.6C43.8-10.3 0 6.1 0 47.9V464c0 37.5 40.7 60.1 72.4 41.3l352-208c31.4-18.5 31.5-64.1 0-82.6z"></path></symbol><symbol viewBox="0 0 20 20" id="fnt-qa"><path fill="currentColor" d="M17 11v3l-3-3H8a2 2 0 0 1-2-2V2c0-1.1.9-2 2-2h10a2 2 0 0 1 2 2v7a2 2 0 0 1-2 2h-1zm-3 2v2a2 2 0 0 1-2 2H6l-3 3v-3H2a2 2 0 0 1-2-2V8c0-1.1.9-2 2-2h2v3a4 4 0 0 0 4 4h6z"></path></symbol></svg>